<svg width="59" height="58" viewBox="0 0 59 58" fill="none" xmlns="http://www.w3.org/2000/svg">
<mask id="path-1-inside-1_1_41" fill="white">
<path d="M0.980011 29.1846C0.980011 13.3064 13.8518 0.43457 29.73 0.43457C45.6082 0.43457 58.48 13.3064 58.48 29.1846C58.48 45.0628 45.6082 57.9346 29.73 57.9346C13.8518 57.9346 0.980011 45.0628 0.980011 29.1846Z"/>
</mask>
<path d="M29.73 56.9346C14.4041 56.9346 1.98001 44.5105 1.98001 29.1846H-0.0199891C-0.0199891 45.615 13.2995 58.9346 29.73 58.9346V56.9346ZM57.48 29.1846C57.48 44.5105 45.0559 56.9346 29.73 56.9346V58.9346C46.1605 58.9346 59.48 45.615 59.48 29.1846H57.48ZM29.73 1.43457C45.0559 1.43457 57.48 13.8587 57.48 29.1846H59.48C59.48 12.7541 46.1605 -0.56543 29.73 -0.56543V1.43457ZM29.73 -0.56543C13.2995 -0.56543 -0.0199891 12.7541 -0.0199891 29.1846H1.98001C1.98001 13.8587 14.4041 1.43457 29.73 1.43457V-0.56543Z" fill="#E4AA00" mask="url(#path-1-inside-1_1_41)"/>
</svg>
