<svg width="143" height="58" viewBox="0 0 143 58" fill="none" xmlns="http://www.w3.org/2000/svg">
<rect x="82.24" y="26.2847" width="6" height="6" rx="3" fill="#E4AA00"/>
<rect x="6.23999" y="28.7847" width="110.28" height="1" fill="#E4AA00"/>
<mask id="path-4-inside-1_1_34" fill="white">
<path d="M84.98 29.1846C84.98 13.3064 97.8518 0.43457 113.73 0.43457C129.608 0.43457 142.48 13.3064 142.48 29.1846C142.48 45.0628 129.608 57.9346 113.73 57.9346C97.8518 57.9346 84.98 45.0628 84.98 29.1846Z"/>
</mask>
<path d="M113.73 56.9346C98.4041 56.9346 85.98 44.5105 85.98 29.1846H83.98C83.98 45.615 97.2995 58.9346 113.73 58.9346V56.9346ZM141.48 29.1846C141.48 44.5105 129.056 56.9346 113.73 56.9346V58.9346C130.16 58.9346 143.48 45.615 143.48 29.1846H141.48ZM113.73 1.43457C129.056 1.43457 141.48 13.8587 141.48 29.1846H143.48C143.48 12.7541 130.16 -0.56543 113.73 -0.56543V1.43457ZM113.73 -0.56543C97.2995 -0.56543 83.98 12.7541 83.98 29.1846H85.98C85.98 13.8587 98.4041 1.43457 113.73 1.43457V-0.56543Z" fill="#E4AA00" mask="url(#path-4-inside-1_1_34)"/>
</svg>
