<svg width="143" height="58" viewBox="0 0 143 58" fill="none" xmlns="http://www.w3.org/2000/svg">
<rect y="26.2847" width="6" height="6" rx="3" fill="#E4AA00"/>
<rect x="6" y="28.7847" width="110.28" height="1" fill="#E4AA00"/>
<mask id="path-4-inside-1_1_42" fill="white">
<path d="M84.74 29.1846C84.74 13.3064 97.6118 0.43457 113.49 0.43457C129.368 0.43457 142.24 13.3064 142.24 29.1846C142.24 45.0628 129.368 57.9346 113.49 57.9346C97.6118 57.9346 84.74 45.0628 84.74 29.1846Z"/>
</mask>
<path d="M113.49 56.9346C98.1641 56.9346 85.74 44.5105 85.74 29.1846H83.74C83.74 45.615 97.0595 58.9346 113.49 58.9346V56.9346ZM141.24 29.1846C141.24 44.5105 128.816 56.9346 113.49 56.9346V58.9346C129.92 58.9346 143.24 45.615 143.24 29.1846H141.24ZM113.49 1.43457C128.816 1.43457 141.24 13.8587 141.24 29.1846H143.24C143.24 12.7541 129.92 -0.56543 113.49 -0.56543V1.43457ZM113.49 -0.56543C97.0595 -0.56543 83.74 12.7541 83.74 29.1846H85.74C85.74 13.8587 98.1641 1.43457 113.49 1.43457V-0.56543Z" fill="#E4AA00" mask="url(#path-4-inside-1_1_42)"/>
</svg>
