<svg width="175" height="202" viewBox="0 0 175 202" fill="none" xmlns="http://www.w3.org/2000/svg">
<g clip-path="url(#clip0_1_146)">
<path d="M139.82 3.43139C139.759 2.83002 139.459 2.34892 139.038 2.04823C132.483 -2.64249 76.1941 21.2321 49.8539 39.6943L1.56355 73.4314C0.781759 73.9726 0.360797 74.6341 0.300659 75.3558V75.5362V154.376V155.038C0.360797 155.76 0.781759 156.481 1.56355 157.022L15.9364 167.306L30.2491 177.589C31.933 178.792 34.6993 178.792 36.3831 177.65L73.067 152.031L94.8969 167.667L141.323 200.983L174.519 175.064L174.579 174.763V96.1032L174.519 95.8025L140 71.0259V3.85235L139.82 3.43139Z" fill="white"/>
<mask id="mask0_1_146" style="mask-type:luminance" maskUnits="userSpaceOnUse" x="0" y="75" width="2" height="3">
<path d="M0.36084 75.416C0.36084 76.1978 0.781802 76.9796 1.62373 77.581L0.36084 75.416Z" fill="white"/>
</mask>
<g mask="url(#mask0_1_146)">
<path d="M0.36084 75.416C0.36084 76.1978 0.781802 76.9796 1.62373 77.581L0.36084 75.416Z" fill="#997D27"/>
</g>
<path d="M73.1271 72.5894L94.8969 88.2852L73.1271 72.5894Z" fill="#987C27"/>
<path d="M1.62372 77.5806L15.9966 87.9242L1.62372 77.5806Z" fill="#987C27"/>
<path d="M15.9966 87.9244L1.62373 77.5808C-0.0601224 76.378 -0.0601224 74.3935 1.62373 73.2509L49.9141 39.4536C76.3144 20.9914 132.543 -3.00343 139.098 1.6873C143.909 5.17527 126.409 27.6065 106.263 46.5498L174.519 95.622L141.323 121.601L94.8969 88.2251L73.067 72.5894L43.8402 93.0361" stroke="#E5B739" stroke-width="0.601375" stroke-miterlimit="10" stroke-dasharray="483.51 484.71"/>
<path d="M73.1271 151.971L36.5034 177.649C34.8196 178.852 32.0533 178.792 30.3694 177.589L15.9966 167.306L1.6237 156.962C0.841914 156.421 0.300677 155.639 0.24054 154.917V154.376" stroke="#E5B739" stroke-width="0.601375" stroke-miterlimit="10" stroke-dasharray="90.21 91.41"/>
<path d="M154.433 160.57L174.519 175.003L141.323 200.983" stroke="#E5B739" stroke-width="0.601375" stroke-miterlimit="10" stroke-dasharray="67.35 68.56"/>
<path d="M141.323 200.923V121.602" stroke="#E5B739" stroke-width="0.601375" stroke-miterlimit="10" stroke-dasharray="79.38 80.58"/>
<path d="M174.579 96.2231V175.605" stroke="#E5B739" stroke-width="0.601375" stroke-miterlimit="10" stroke-dasharray="79.98 81.19"/>
<path d="M73.0068 72.8301V152.151" stroke="#E5B739" stroke-width="1.20275" stroke-miterlimit="10" stroke-dasharray="79.38 80.58"/>
<path d="M105.661 46.6099V77.28" stroke="#E5B739" stroke-width="0.601375" stroke-miterlimit="10" stroke-dasharray="30.67 31.87"/>
<path d="M140 3.55176V82.8731" stroke="#E5B739" stroke-width="0.601375" stroke-miterlimit="10" stroke-dasharray="79.38 80.58"/>
<path d="M33.1357 112.641V177.89" stroke="#E5B739" stroke-width="0.601375" stroke-miterlimit="10" stroke-dasharray="65.55 66.75"/>
<path d="M0.420959 75.3555V154.376" stroke="#E5B739" stroke-width="0.601375" stroke-miterlimit="10" stroke-dasharray="79.38 80.58"/>
<path d="M140.962 160.57L130.558 153.053L116.065 169.29L108.368 163.818L89.1838 98.8692L72.5859 86.9019" stroke="#E5B739" stroke-width="1.20275" stroke-miterlimit="10" stroke-dasharray="132.3 133.51"/>
<path d="M70.8419 72.5894C70.8419 72.2893 70.901 71.9922 71.0159 71.7149C71.1307 71.4376 71.299 71.1857 71.5112 70.9735C71.7234 70.7613 71.9754 70.593 72.2526 70.4782C72.5299 70.3633 72.827 70.3042 73.1271 70.3042C73.4272 70.3042 73.7244 70.3633 74.0017 70.4782C74.2789 70.593 74.5308 70.7613 74.743 70.9735C74.9552 71.1857 75.1236 71.4376 75.2384 71.7149C75.3533 71.9922 75.4124 72.2893 75.4124 72.5894C75.4124 72.8895 75.3533 73.1867 75.2384 73.4639C75.1236 73.7412 74.9552 73.9931 74.743 74.2053C74.5308 74.4175 74.2789 74.5859 74.0017 74.7007C73.7244 74.8155 73.4272 74.8746 73.1271 74.8746C72.827 74.8746 72.5299 74.8155 72.2526 74.7007C71.9754 74.5859 71.7234 74.4175 71.5112 74.2053C71.299 73.9931 71.1307 73.7412 71.0159 73.4639C70.901 73.1867 70.8419 72.8895 70.8419 72.5894Z" fill="#E5B737"/>
<path d="M121.237 186.61L73.1271 151.971" stroke="#E5B739" stroke-width="1.20275" stroke-miterlimit="10" stroke-dasharray="59.54 60.74"/>
<path d="M70.8419 87.5635C70.8419 87.2634 70.901 86.9663 71.0159 86.689C71.1307 86.4118 71.299 86.1598 71.5112 85.9476C71.7234 85.7354 71.9754 85.5671 72.2526 85.4523C72.5299 85.3374 72.827 85.2783 73.1271 85.2783C73.4272 85.2783 73.7244 85.3374 74.0017 85.4523C74.2789 85.5671 74.5308 85.7354 74.743 85.9476C74.9552 86.1598 75.1236 86.4118 75.2384 86.689C75.3533 86.9663 75.4124 87.2634 75.4124 87.5635C75.4124 87.8636 75.3533 88.1608 75.2384 88.4381C75.1236 88.7153 74.9552 88.9672 74.743 89.1794C74.5308 89.3916 74.2789 89.56 74.0017 89.6748C73.7244 89.7897 73.4272 89.8488 73.1271 89.8488C72.827 89.8488 72.5299 89.7897 72.2526 89.6748C71.9754 89.56 71.7234 89.3916 71.5112 89.1794C71.299 88.9672 71.1307 88.7153 71.0159 88.4381C70.901 88.1608 70.8419 87.8636 70.8419 87.5635Z" fill="#E5B737"/>
<path d="M139.038 160.57C139.038 159.964 139.279 159.383 139.707 158.954C140.136 158.526 140.717 158.285 141.323 158.285C141.929 158.285 142.51 158.526 142.939 158.954C143.367 159.383 143.608 159.964 143.608 160.57C143.608 161.176 143.367 161.758 142.939 162.186C142.51 162.615 141.929 162.856 141.323 162.856C140.717 162.856 140.136 162.615 139.707 162.186C139.279 161.758 139.038 161.176 139.038 160.57Z" fill="#E5B737"/>
</g>
<defs>
<clipPath id="clip0_1_146">
<rect width="175" height="200.258" fill="white" transform="translate(0 0.785156)"/>
</clipPath>
</defs>
</svg>
