<svg width="177" height="150" viewBox="0 0 177 150" fill="none" xmlns="http://www.w3.org/2000/svg">
<g clip-path="url(#clip0_1_204)">
<path d="M0.896973 29.1887V108.002L30.676 129.409C48.675 142.325 66.7936 148.664 85.8689 148.245C108.592 147.767 130.059 138.379 146.025 127.137C147.819 125.881 149.613 124.565 151.287 123.25L176.103 103.816V25.0627L142.617 0.964355L108.233 26.5576C96.9912 34.4508 82.3409 34.6302 72.3547 27.4546C69.1257 25.1225 53.4588 13.8208 38.3301 2.93767L0.896973 29.1887Z" fill="white"/>
<path d="M30.5564 129.708L0.657776 108.241L38.2105 81.9897" stroke="#E5B739" stroke-width="0.597973" stroke-miterlimit="10" stroke-dasharray="83.12 84.31"/>
<path d="M142.736 79.9565L176.342 104.115L151.467 123.609C149.792 124.924 148.058 126.24 146.204 127.495" stroke="#E5B739" stroke-width="0.597973" stroke-miterlimit="10" stroke-dasharray="80.13 81.32"/>
<path d="M30.5564 50.7157L0.657776 29.2485L38.2105 2.93767C53.3392 13.8806 69.0659 25.1823 72.2949 27.5144C82.2811 34.69 96.9912 34.5106 108.293 26.6174L142.796 0.964355L176.402 25.1225L151.526 44.6164" stroke="#E5B739" stroke-width="0.597973" stroke-miterlimit="10" stroke-dasharray="279.25 280.45"/>
<path d="M38.2104 2.9375V81.9895" stroke="#E5B739" stroke-width="0.597973" stroke-miterlimit="10" stroke-dasharray="79.53 80.73"/>
<path d="M0.657776 108.241V29.2485" stroke="#E5B739" stroke-width="0.597973" stroke-miterlimit="10" stroke-dasharray="79.53 80.73"/>
<path d="M142.736 79.9566V0.964355" stroke="#E5B739" stroke-width="0.597973" stroke-miterlimit="10" stroke-dasharray="79.53 80.73"/>
<path d="M176.342 25.1226V104.115" stroke="#E5B739" stroke-width="0.597973" stroke-miterlimit="10" stroke-dasharray="79.53 80.73"/>
<path d="M137.354 54.124C122.644 62.7348 104.705 69.1929 85.8689 69.6115" stroke="#E5B739" stroke-width="1.19595" stroke-miterlimit="10" stroke-dasharray="54.42 55.61"/>
<path d="M62.548 66.6216V145.674" stroke="#E5B739" stroke-width="1.19595" stroke-miterlimit="10" stroke-dasharray="79.53 80.73"/>
<path d="M112.838 64.6484V144.059" stroke="#E5B739" stroke-width="1.19595" stroke-miterlimit="10" stroke-dasharray="79.53 80.73"/>
<path d="M60.2757 66.6219C60.2757 66.0193 60.5151 65.4413 60.9412 65.0151C61.3674 64.589 61.9453 64.3496 62.548 64.3496C63.1506 64.3496 63.7286 64.589 64.1547 65.0151C64.5809 65.4413 64.8203 66.0193 64.8203 66.6219C64.8203 67.2246 64.5809 67.8025 64.1547 68.2287C63.7286 68.6548 63.1506 68.8942 62.548 68.8942C61.9453 68.8942 61.3674 68.6548 60.9412 68.2287C60.5151 67.8025 60.2757 67.2246 60.2757 66.6219Z" fill="#E5B737"/>
<path d="M83.9554 69.6116C83.9554 69.009 84.1948 68.431 84.6209 68.0049C85.0471 67.5788 85.625 67.3394 86.2277 67.3394C86.8303 67.3394 87.4083 67.5788 87.8344 68.0049C88.2606 68.431 88.5 69.009 88.5 69.6116C88.5 70.2143 88.2606 70.7923 87.8344 71.2184C87.4083 71.6445 86.8303 71.8839 86.2277 71.8839C85.625 71.8839 85.0471 71.6445 84.6209 71.2184C84.1948 70.7923 83.9554 70.2143 83.9554 69.6116Z" fill="#E5B737"/>
<path d="M135.082 54.1243C135.082 53.5217 135.322 52.9437 135.748 52.5176C136.174 52.0915 136.752 51.8521 137.354 51.8521C137.957 51.8521 138.535 52.0915 138.961 52.5176C139.387 52.9437 139.627 53.5217 139.627 54.1243C139.627 54.727 139.387 55.305 138.961 55.7311C138.535 56.1572 137.957 56.3966 137.354 56.3966C136.752 56.3966 136.174 56.1572 135.748 55.7311C135.322 55.305 135.082 54.727 135.082 54.1243Z" fill="#E5B737"/>
<path d="M60.2757 145.674C60.2757 145.071 60.5151 144.493 60.9412 144.067C61.3674 143.641 61.9453 143.401 62.548 143.401C63.1506 143.401 63.7286 143.641 64.1547 144.067C64.5809 144.493 64.8203 145.071 64.8203 145.674C64.8203 146.276 64.5809 146.854 64.1547 147.28C63.7286 147.707 63.1506 147.946 62.548 147.946C61.9453 147.946 61.3674 147.707 60.9412 147.28C60.5151 146.854 60.2757 146.276 60.2757 145.674Z" fill="#E5B737"/>
<path d="M110.565 145.674C110.565 145.071 110.805 144.493 111.231 144.067C111.657 143.641 112.235 143.401 112.837 143.401C113.44 143.401 114.018 143.641 114.444 144.067C114.87 144.493 115.11 145.071 115.11 145.674C115.11 146.276 114.87 146.854 114.444 147.28C114.018 147.707 113.44 147.946 112.837 147.946C112.235 147.946 111.657 147.707 111.231 147.28C110.805 146.854 110.565 146.276 110.565 145.674Z" fill="#E5B737"/>
</g>
<defs>
<clipPath id="clip0_1_204">
<rect width="177" height="148.297" fill="white" transform="translate(0 0.785156)"/>
</clipPath>
</defs>
</svg>
