<svg width="134" height="220" viewBox="0 0 134 220" fill="none" xmlns="http://www.w3.org/2000/svg">
<path d="M1.46929 166.875C1.52806 168.873 1.76315 170.93 2.2921 172.928C5.52455 185.447 17.9842 196.085 35.0281 208.368L48.7807 218.3L85.3368 192.676V132.963V132.199C92.0368 128.027 98.9719 124.089 105.202 120.445L133.001 104.165V27.174L105.261 1.66699L75.1693 18.8872C63.0623 25.8223 51.0728 32.9337 39.6123 40.4565C38.0842 41.4556 36.6149 42.4547 35.0868 43.5126C27.0351 49.1547 19.1596 55.7372 13.0474 62.9661C6.22982 71.0179 1.58683 79.8336 1.46929 88.8845L1.35175 89.1784V166.346L1.46929 166.875Z" fill="white"/>
<path d="M133.06 27.0562V104.106V27.0562Z" fill="#B7B7B7"/>
<path d="M133.06 27.0562V104.106" stroke="#E5B737" stroke-width="0.587719" stroke-miterlimit="10" stroke-dasharray="77.58 78.75"/>
<path d="M64.8842 178.041C68.3518 180.51 76.286 186.211 85.3956 192.734L48.8395 218.359L35.0281 208.426C17.9255 196.143 5.52458 185.505 2.29212 172.987C-0.646472 161.409 4.40791 150.066 13.0474 139.898C19.1597 132.669 27.0939 126.087 35.1456 120.445C36.6737 119.387 38.143 118.388 39.6711 117.389C51.1316 109.925 63.0623 102.813 75.2281 95.8193L105.319 78.5991L133.118 104.106L105.319 120.386" stroke="#E5B737" stroke-width="0.587719" stroke-miterlimit="10" stroke-dasharray="353.81 354.98"/>
<path d="M48.8395 141.309L35.0281 131.376C17.9255 119.093 5.52458 108.455 2.29212 95.937C-0.646472 84.359 4.40791 73.016 13.0474 62.8484C19.1597 55.6783 27.0351 49.037 35.0869 43.3949C36.6149 42.337 38.0842 41.3379 39.6123 40.3388C51.0728 32.8748 63.0035 25.7634 75.1693 18.7695L105.261 1.54932L133.06 27.0563L105.261 43.3362C102.204 45.1581 98.9719 46.98 95.6807 48.9195" stroke="#E5B737" stroke-width="0.587719" stroke-miterlimit="10" stroke-dasharray="295.04 296.21"/>
<path d="M105.26 78.6579V1.60791V78.6579Z" fill="#B7B7B7"/>
<path d="M105.26 78.6579V1.60791" stroke="#E5B737" stroke-width="0.587719" stroke-miterlimit="10" stroke-dasharray="77.58 78.75"/>
<path d="M48.8395 141.309V218.359V141.309Z" fill="#B7B7B7"/>
<path d="M48.8395 141.309V218.359" stroke="#E5B737" stroke-width="0.587719" stroke-miterlimit="10" stroke-dasharray="77.58 78.75"/>
<path d="M85.3956 192.735V154.18V192.735Z" fill="#B7B7B7"/>
<path d="M85.3956 192.735V154.18" stroke="#E5B737" stroke-width="0.587719" stroke-miterlimit="10" stroke-dasharray="38.79 39.96"/>
<path d="M1.35175 166.346V89.1196V166.346Z" fill="#B7B7B7"/>
<path d="M1.35175 166.346V89.1196" stroke="#E5B737" stroke-width="0.587719" stroke-miterlimit="10" stroke-dasharray="77.58 78.75"/>
<path d="M105.26 78.7756V1.54932" stroke="#E5B739" stroke-width="0.705263" stroke-miterlimit="10" stroke-dasharray="77.58 78.75"/>
<path d="M35.0869 120.68V86.5923" stroke="#E5B739" stroke-width="1.17544" stroke-miterlimit="10" stroke-dasharray="34.09 35.26"/>
<path d="M87.2175 11.8345V47.0389" stroke="#E5B739" stroke-width="1.17544" stroke-miterlimit="10" stroke-dasharray="35.26 36.44"/>
<path d="M79.9298 25.1758V72.0758C79.9298 76.7775 77.4614 81.1854 73.4061 83.5951L55.7158 94.2916C53.4237 95.6433 50.5438 93.9977 50.5438 91.353V78.3056C50.5438 75.1907 52.1895 72.2521 54.8342 70.6065L68.0579 62.4372C70.7026 60.7916 72.3482 57.9117 72.3482 54.7381V41.6907C72.3482 39.046 69.4096 37.4003 67.1763 38.7521L49.3684 49.5074C45.3131 51.917 42.8447 56.3249 42.8447 61.0267V107.163" stroke="#E5B739" stroke-width="1.17544" stroke-miterlimit="10" stroke-dasharray="236.85 238.03"/>
<path d="M32.8535 86.9448C32.8535 86.6515 32.9113 86.3611 33.0235 86.0901C33.1358 85.8191 33.3003 85.5729 33.5076 85.3656C33.715 85.1582 33.9612 84.9937 34.2322 84.8814C34.5031 84.7692 34.7936 84.7114 35.0868 84.7114C35.3801 84.7114 35.6705 84.7692 35.9415 84.8814C36.2125 84.9937 36.4587 85.1582 36.6661 85.3656C36.8734 85.5729 37.0379 85.8191 37.1502 86.0901C37.2624 86.3611 37.3202 86.6515 37.3202 86.9448C37.3202 87.238 37.2624 87.5285 37.1502 87.7994C37.0379 88.0704 36.8734 88.3166 36.6661 88.524C36.4587 88.7313 36.2125 88.8959 35.9415 89.0081C35.6705 89.1203 35.3801 89.1781 35.0868 89.1781C34.7936 89.1781 34.5031 89.1203 34.2322 89.0081C33.9612 88.8959 33.715 88.7313 33.5076 88.524C33.3003 88.3166 33.1358 88.0704 33.0235 87.7994C32.9113 87.5285 32.8535 87.238 32.8535 86.9448Z" fill="#E5B737"/>
<path d="M59.2421 66.4921C59.2421 65.8998 59.4774 65.3317 59.8963 64.9129C60.3151 64.4941 60.8831 64.2588 61.4755 64.2588C62.0678 64.2588 62.6358 64.4941 63.0547 64.9129C63.4735 65.3317 63.7088 65.8998 63.7088 66.4921C63.7088 67.0844 63.4735 67.6525 63.0547 68.0713C62.6358 68.4902 62.0678 68.7255 61.4755 68.7255C60.8831 68.7255 60.3151 68.4902 59.8963 68.0713C59.4774 67.6525 59.2421 67.0844 59.2421 66.4921Z" fill="#E5B737"/>
<path d="M84.9842 47.039C84.9842 46.4467 85.2195 45.8786 85.6383 45.4598C86.0571 45.041 86.6252 44.8057 87.2175 44.8057C87.8098 44.8057 88.3779 45.041 88.7967 45.4598C89.2156 45.8786 89.4509 46.4467 89.4509 47.039C89.4509 47.6313 89.2156 48.1994 88.7967 48.6182C88.3779 49.037 87.8098 49.2723 87.2175 49.2723C86.6252 49.2723 86.0571 49.037 85.6383 48.6182C85.2195 48.1994 84.9842 47.6313 84.9842 47.039Z" fill="#E5B737"/>
</svg>
