<svg width="36" height="36" viewBox="0 0 36 36" fill="none" xmlns="http://www.w3.org/2000/svg">
<g clip-path="url(#clip0_1_293)">
<path fill-rule="evenodd" clip-rule="evenodd" d="M25.458 19.6621C23.726 21.9271 21.188 23.3681 18.355 23.3681C15.523 23.3681 12.985 21.9281 11.253 19.6621C9.41857 20.1822 7.80353 21.2858 6.65235 22.8058C5.50118 24.3257 4.87653 26.1794 4.87299 28.0861C4.87299 28.4581 5.17499 28.7601 5.54699 28.7601L13.07 33.3551H23.666C24.038 33.3551 31.836 28.4591 31.836 28.0871C31.8328 26.1805 31.2085 24.3268 30.0577 22.8066C28.9069 21.2865 27.2922 20.1826 25.458 19.6621Z" fill="black"/>
<path fill-rule="evenodd" clip-rule="evenodd" d="M18.467 32.5652C10.58 32.5652 4.18698 26.1722 4.18698 18.2852C4.18698 10.3982 10.58 4.00516 18.467 4.00516C26.354 4.00516 32.747 10.3982 32.747 18.2852C32.747 26.1722 26.354 32.5652 18.467 32.5652ZM18.467 0.785156C8.80198 0.785156 0.96698 8.62016 0.96698 18.2852C0.96698 27.9502 8.80198 35.7852 18.467 35.7852C28.132 35.7852 35.967 27.9502 35.967 18.2852C35.967 8.62016 28.132 0.785156 18.467 0.785156Z" fill="#FF8080"/>
<path fill-rule="evenodd" clip-rule="evenodd" d="M22.115 13.7279H20.767C20.5882 13.7279 20.4168 13.6569 20.2904 13.5305C20.164 13.4041 20.093 13.2326 20.093 13.0539C20.093 12.8751 20.164 12.7037 20.2904 12.5773C20.4168 12.4509 20.5882 12.3799 20.767 12.3799H22.115C22.2937 12.3799 22.4652 12.4509 22.5916 12.5773C22.718 12.7037 22.789 12.8751 22.789 13.0539C22.789 13.2326 22.718 13.4041 22.5916 13.5305C22.4652 13.6569 22.2937 13.7279 22.115 13.7279ZM15.943 13.7279H14.595C14.4162 13.7279 14.2448 13.6569 14.1184 13.5305C13.992 13.4041 13.921 13.2326 13.921 13.0539C13.921 12.8751 13.992 12.7037 14.1184 12.5773C14.2448 12.4509 14.4162 12.3799 14.595 12.3799H15.943C16.1217 12.3799 16.2932 12.4509 16.4196 12.5773C16.546 12.7037 16.617 12.8751 16.617 13.0539C16.617 13.2326 16.546 13.4041 16.4196 13.5305C16.2932 13.6569 16.1217 13.7279 15.943 13.7279ZM26.444 12.5829C26.4463 12.1315 26.4148 11.6806 26.35 11.2339H10.36C10.2952 11.6806 10.2638 12.1315 10.266 12.5829C10.267 13.2609 10.33 13.9379 10.456 14.6049C14.707 17.1029 15.713 14.4699 18.356 14.4699C20.998 14.4699 22.346 17.0589 26.256 14.6319C26.38 13.9559 26.443 13.2699 26.444 12.5819M10.266 9.88587H26.444C26.8015 9.88587 27.1443 9.74385 27.3971 9.49105C27.6499 9.23826 27.792 8.89539 27.792 8.53787C27.792 8.18036 27.6499 7.83749 27.3971 7.58469C27.1443 7.3319 26.8015 7.18988 26.444 7.18988H26.135C25.6954 5.64203 24.7646 4.279 23.4829 3.30626C22.2012 2.33351 20.638 1.80377 19.029 1.79688H17.681C16.0719 1.80377 14.5087 2.33351 13.227 3.30626C11.9453 4.279 11.0145 5.64203 10.575 7.18988H10.266C9.90846 7.18988 9.56559 7.3319 9.31279 7.58469C9.05999 7.83749 8.91797 8.18036 8.91797 8.53787C8.91797 8.89539 9.05999 9.23826 9.31279 9.49105C9.56559 9.74385 9.90846 9.88587 10.266 9.88587Z" fill="black"/>
<path fill-rule="evenodd" clip-rule="evenodd" d="M18.355 15.8184C17.308 15.8184 15.421 17.0184 13.812 17.0184C12.8212 16.9642 11.8477 16.7361 10.936 16.3444L10.94 16.3574C12.194 19.6874 15.039 22.0204 18.355 22.0204C21.672 22.0204 24.516 19.6874 25.77 16.3574L25.775 16.3444C24.863 16.7362 23.8891 16.9643 22.898 17.0184C21.289 17.0184 19.402 15.8184 18.355 15.8184Z" fill="black"/>
<path fill-rule="evenodd" clip-rule="evenodd" d="M31.27 7.62234L8.341 30.5523L5.664 27.8743L28.593 4.94434L31.27 7.62234Z" fill="#FF8080"/>
</g>
<defs>
<clipPath id="clip0_1_293">
<rect width="36" height="35" fill="white" transform="translate(0 0.785156)"/>
</clipPath>
</defs>
</svg>
